<mxfile host="app.diagrams.net" agent="Mozilla/5.0 (Macintosh; Intel Mac OS X 10_15_7) AppleWebKit/537.36 (KHTML, like Gecko) Chrome/134.0.0.0 Safari/537.36" version="26.2.5">
  <diagram name="第 1 页" id="NON8Rd3GJQy8wurd_1fi">
    <mxGraphModel dx="1428" dy="818" grid="0" gridSize="10" guides="1" tooltips="1" connect="1" arrows="1" fold="1" page="1" pageScale="1" pageWidth="827" pageHeight="1169" math="0" shadow="0">
      <root>
        <mxCell id="0" />
        <mxCell id="1" parent="0" />
        <mxCell id="gZv3Gm8ogxba07W1_BW--16" style="edgeStyle=none;curved=1;rounded=0;orthogonalLoop=1;jettySize=auto;html=1;entryX=0.5;entryY=0;entryDx=0;entryDy=0;startSize=8;endSize=8;" edge="1" parent="1" source="gZv3Gm8ogxba07W1_BW--1" target="gZv3Gm8ogxba07W1_BW--2">
          <mxGeometry relative="1" as="geometry" />
        </mxCell>
        <mxCell id="gZv3Gm8ogxba07W1_BW--1" value="&lt;font style=&quot;font-size: 14px;&quot;&gt;Activity / Fragment&lt;/font&gt;" style="rounded=1;whiteSpace=wrap;html=1;fontFamily=Times New Roman;" vertex="1" parent="1">
          <mxGeometry x="357.5" y="376" width="120" height="60" as="geometry" />
        </mxCell>
        <mxCell id="gZv3Gm8ogxba07W1_BW--17" style="edgeStyle=none;curved=1;rounded=0;orthogonalLoop=1;jettySize=auto;html=1;entryX=0.5;entryY=0;entryDx=0;entryDy=0;startSize=8;endSize=8;" edge="1" parent="1" source="gZv3Gm8ogxba07W1_BW--2" target="gZv3Gm8ogxba07W1_BW--8">
          <mxGeometry relative="1" as="geometry" />
        </mxCell>
        <mxCell id="gZv3Gm8ogxba07W1_BW--2" value="&lt;font style=&quot;font-size: 14px;&quot;&gt;&amp;nbsp; &amp;nbsp;ViewModel&lt;/font&gt;" style="rounded=1;whiteSpace=wrap;html=1;fontFamily=Times New Roman;align=left;" vertex="1" parent="1">
          <mxGeometry x="301" y="477" width="233" height="92" as="geometry" />
        </mxCell>
        <mxCell id="gZv3Gm8ogxba07W1_BW--3" value="" style="rounded=1;whiteSpace=wrap;html=1;fontFamily=Times New Roman;" vertex="1" parent="1">
          <mxGeometry x="403" y="487" width="97" height="45" as="geometry" />
        </mxCell>
        <mxCell id="gZv3Gm8ogxba07W1_BW--6" value="" style="rounded=1;whiteSpace=wrap;html=1;fontFamily=Times New Roman;" vertex="1" parent="1">
          <mxGeometry x="414" y="500.5" width="97" height="45" as="geometry" />
        </mxCell>
        <mxCell id="gZv3Gm8ogxba07W1_BW--7" value="LiveData 3" style="rounded=1;whiteSpace=wrap;html=1;fontFamily=Times New Roman;fontSize=14;" vertex="1" parent="1">
          <mxGeometry x="426" y="514" width="97" height="45" as="geometry" />
        </mxCell>
        <mxCell id="gZv3Gm8ogxba07W1_BW--19" style="edgeStyle=orthogonalEdgeStyle;rounded=0;orthogonalLoop=1;jettySize=auto;html=1;exitX=0;exitY=0.5;exitDx=0;exitDy=0;entryX=0.5;entryY=0;entryDx=0;entryDy=0;startSize=8;endSize=8;" edge="1" parent="1" source="gZv3Gm8ogxba07W1_BW--8" target="gZv3Gm8ogxba07W1_BW--9">
          <mxGeometry relative="1" as="geometry" />
        </mxCell>
        <mxCell id="gZv3Gm8ogxba07W1_BW--22" style="edgeStyle=orthogonalEdgeStyle;rounded=0;orthogonalLoop=1;jettySize=auto;html=1;exitX=1;exitY=0.5;exitDx=0;exitDy=0;entryX=0.5;entryY=0;entryDx=0;entryDy=0;startSize=8;endSize=8;" edge="1" parent="1" source="gZv3Gm8ogxba07W1_BW--8" target="gZv3Gm8ogxba07W1_BW--10">
          <mxGeometry relative="1" as="geometry" />
        </mxCell>
        <mxCell id="gZv3Gm8ogxba07W1_BW--8" value="Repository" style="rounded=1;whiteSpace=wrap;html=1;fontFamily=Times New Roman;fontSize=14;" vertex="1" parent="1">
          <mxGeometry x="357.5" y="615" width="120" height="60" as="geometry" />
        </mxCell>
        <mxCell id="gZv3Gm8ogxba07W1_BW--9" value="Model" style="rounded=1;whiteSpace=wrap;html=1;fontFamily=Times New Roman;fontSize=14;flipV=0;verticalAlign=top;" vertex="1" parent="1">
          <mxGeometry x="191" y="740" width="139" height="70" as="geometry" />
        </mxCell>
        <mxCell id="gZv3Gm8ogxba07W1_BW--10" value="Remote Data Source" style="rounded=1;whiteSpace=wrap;html=1;fontFamily=Times New Roman;fontSize=14;verticalAlign=top;" vertex="1" parent="1">
          <mxGeometry x="486" y="738" width="158" height="72" as="geometry" />
        </mxCell>
        <mxCell id="gZv3Gm8ogxba07W1_BW--11" value="Room" style="rounded=1;whiteSpace=wrap;html=1;fontFamily=Times New Roman;fontSize=14;" vertex="1" parent="1">
          <mxGeometry x="258" y="773" width="67" height="33" as="geometry" />
        </mxCell>
        <mxCell id="gZv3Gm8ogxba07W1_BW--12" value="Retrofit" style="rounded=1;whiteSpace=wrap;html=1;fontFamily=Times New Roman;fontSize=14;" vertex="1" parent="1">
          <mxGeometry x="571" y="765" width="67" height="41" as="geometry" />
        </mxCell>
        <mxCell id="gZv3Gm8ogxba07W1_BW--14" value="&lt;font style=&quot;font-size: 14px;&quot;&gt;SQLite&lt;/font&gt;" style="shape=cylinder3;whiteSpace=wrap;html=1;boundedLbl=1;backgroundOutline=1;size=15;fontFamily=Times New Roman;" vertex="1" parent="1">
          <mxGeometry x="230.5" y="866" width="60" height="80" as="geometry" />
        </mxCell>
        <mxCell id="gZv3Gm8ogxba07W1_BW--15" value="&lt;font style=&quot;font-size: 14px;&quot;&gt;webservice&lt;/font&gt;" style="ellipse;shape=cloud;whiteSpace=wrap;html=1;fontFamily=Times New Roman;" vertex="1" parent="1">
          <mxGeometry x="511" y="881" width="120" height="62" as="geometry" />
        </mxCell>
        <mxCell id="gZv3Gm8ogxba07W1_BW--23" style="edgeStyle=none;curved=1;rounded=0;orthogonalLoop=1;jettySize=auto;html=1;entryX=0.5;entryY=0;entryDx=0;entryDy=0;entryPerimeter=0;startSize=8;endSize=8;" edge="1" parent="1" source="gZv3Gm8ogxba07W1_BW--9" target="gZv3Gm8ogxba07W1_BW--14">
          <mxGeometry relative="1" as="geometry" />
        </mxCell>
        <mxCell id="gZv3Gm8ogxba07W1_BW--24" style="edgeStyle=none;curved=1;rounded=0;orthogonalLoop=1;jettySize=auto;html=1;entryX=0.467;entryY=0.138;entryDx=0;entryDy=0;entryPerimeter=0;startSize=8;endSize=8;" edge="1" parent="1" source="gZv3Gm8ogxba07W1_BW--10" target="gZv3Gm8ogxba07W1_BW--15">
          <mxGeometry relative="1" as="geometry" />
        </mxCell>
      </root>
    </mxGraphModel>
  </diagram>
</mxfile>
